<svg id="visual" viewBox="0 0 1600 800" width="1600" height="800" xmlns="http://www.w3.org/2000/svg" xmlns:xlink="http://www.w3.org/1999/xlink" version="1.1"><rect x="0" y="0" width="1600" height="800" fill="#0b2236"></rect><path d="M0 192L33.3 200C66.7 208 133.3 224 200 228.8C266.7 233.7 333.3 227.3 400 222.8C466.7 218.3 533.3 215.7 600 220.2C666.7 224.7 733.3 236.3 800 250.5C866.7 264.7 933.3 281.3 1000 267.5C1066.7 253.7 1133.3 209.3 1200 199.7C1266.7 190 1333.3 215 1400 238.3C1466.7 261.7 1533.3 283.3 1566.7 294.2L1600 305L1600 801L1566.7 801C1533.3 801 1466.7 801 1400 801C1333.3 801 1266.7 801 1200 801C1133.3 801 1066.7 801 1000 801C933.3 801 866.7 801 800 801C733.3 801 666.7 801 600 801C533.3 801 466.7 801 400 801C333.3 801 266.7 801 200 801C133.3 801 66.7 801 33.3 801L0 801Z" fill="#0b2236"></path><path d="M0 366L33.3 364.3C66.7 362.7 133.3 359.3 200 345.3C266.7 331.3 333.3 306.7 400 318.5C466.7 330.3 533.3 378.7 600 383.8C666.7 389 733.3 351 800 328.7C866.7 306.3 933.3 299.7 1000 317.7C1066.7 335.7 1133.3 378.3 1200 389C1266.7 399.7 1333.3 378.3 1400 358C1466.7 337.7 1533.3 318.3 1566.7 308.7L1600 299L1600 801L1566.7 801C1533.3 801 1466.7 801 1400 801C1333.3 801 1266.7 801 1200 801C1133.3 801 1066.7 801 1000 801C933.3 801 866.7 801 800 801C733.3 801 666.7 801 600 801C533.3 801 466.7 801 400 801C333.3 801 266.7 801 200 801C133.3 801 66.7 801 33.3 801L0 801Z" fill="#0b243a"></path><path d="M0 398L33.3 405C66.7 412 133.3 426 200 446.8C266.7 467.7 333.3 495.3 400 493.8C466.7 492.3 533.3 461.7 600 450.5C666.7 439.3 733.3 447.7 800 458.7C866.7 469.7 933.3 483.3 1000 482.2C1066.7 481 1133.3 465 1200 460.8C1266.7 456.7 1333.3 464.3 1400 459C1466.7 453.7 1533.3 435.3 1566.7 426.2L1600 417L1600 801L1566.7 801C1533.3 801 1466.7 801 1400 801C1333.3 801 1266.7 801 1200 801C1133.3 801 1066.7 801 1000 801C933.3 801 866.7 801 800 801C733.3 801 666.7 801 600 801C533.3 801 466.7 801 400 801C333.3 801 266.7 801 200 801C133.3 801 66.7 801 33.3 801L0 801Z" fill="#0c263e"></path><path d="M0 576L33.3 580C66.7 584 133.3 592 200 580C266.7 568 333.3 536 400 527.5C466.7 519 533.3 534 600 533.8C666.7 533.7 733.3 518.3 800 519C866.7 519.7 933.3 536.3 1000 535.7C1066.7 535 1133.3 517 1200 508.7C1266.7 500.3 1333.3 501.7 1400 516C1466.7 530.3 1533.3 557.7 1566.7 571.3L1600 585L1600 801L1566.7 801C1533.3 801 1466.7 801 1400 801C1333.3 801 1266.7 801 1200 801C1133.3 801 1066.7 801 1000 801C933.3 801 866.7 801 800 801C733.3 801 666.7 801 600 801C533.3 801 466.7 801 400 801C333.3 801 266.7 801 200 801C133.3 801 66.7 801 33.3 801L0 801Z" fill="#0d2842"></path><path d="M0 646L33.3 657.7C66.7 669.3 133.3 692.7 200 702.8C266.7 713 333.3 710 400 707.3C466.7 704.7 533.3 702.3 600 688.5C666.7 674.7 733.3 649.3 800 639C866.7 628.7 933.3 633.3 1000 639.3C1066.7 645.3 1133.3 652.7 1200 651C1266.7 649.3 1333.3 638.7 1400 639.8C1466.7 641 1533.3 654 1566.7 660.5L1600 667L1600 801L1566.7 801C1533.3 801 1466.7 801 1400 801C1333.3 801 1266.7 801 1200 801C1133.3 801 1066.7 801 1000 801C933.3 801 866.7 801 800 801C733.3 801 666.7 801 600 801C533.3 801 466.7 801 400 801C333.3 801 266.7 801 200 801C133.3 801 66.7 801 33.3 801L0 801Z" fill="#0e2a47"></path></svg>